ffmpeg version 8.1-full_build-www.gyan.dev Copyright (c) 2000-2026 the FFmpeg developers
  built with gcc 15.2.0 (Rev11, Built by MSYS2 project)
  configuration: --enable-gpl --enable-version3 --enable-static --disable-w32threads --disable-autodetect --enable-cairo --enable-fontconfig --enable-iconv --enable-gnutls --enable-lcms2 --enable-libxml2 --enable-gmp --enable-bzlib --enable-lzma --enable-libsnappy --enable-zlib --enable-librist --enable-libsrt --enable-libssh --enable-libzmq --enable-avisynth --enable-libbluray --enable-libcaca --enable-libdvdnav --enable-libdvdread --enable-sdl2 --enable-libaribb24 --enable-libaribcaption --enable-libdav1d --enable-libdavs2 --enable-libopenjpeg --enable-libquirc --enable-libuavs3d --enable-libxevd --enable-libzvbi --enable-liboapv --enable-libqrencode --enable-librav1e --enable-libsvtav1 --enable-libvvenc --enable-libwebp --enable-libx264 --enable-libx265 --enable-libxavs2 --enable-libxeve --enable-libxvid --enable-libaom --enable-libjxl --enable-libsvtjpegxs --enable-libvpx --enable-mediafoundation --enable-libass --enable-frei0r --enable-libfreetype --enable-libfribidi --enable-libharfbuzz --enable-liblensfun --enable-libvidstab --enable-libvmaf --enable-libzimg --enable-amf --enable-cuda-llvm --enable-cuvid --enable-dxva2 --enable-d3d11va --enable-d3d12va --enable-ffnvcodec --enable-libvpl --enable-nvdec --enable-nvenc --enable-vaapi --enable-libshaderc --enable-vulkan --enable-libplacebo --enable-opencl --enable-libcdio --enable-openal --enable-libgme --enable-libmodplug --enable-libopenmpt --enable-libopencore-amrwb --enable-libmp3lame --enable-libshine --enable-libtheora --enable-libtwolame --enable-libvo-amrwbenc --enable-libcodec2 --enable-libilbc --enable-libgsm --enable-liblc3 --enable-libopencore-amrnb --enable-libopus --enable-libspeex --enable-libvorbis --enable-ladspa --enable-libbs2b --enable-libflite --enable-libmysofa --enable-librubberband --enable-libsoxr --enable-chromaprint --enable-whisper
  libavutil      60. 26.100 / 60. 26.100
  libavcodec     62. 28.100 / 62. 28.100
  libavformat    62. 12.100 / 62. 12.100
  libavdevice    62.  3.100 / 62.  3.100
  libavfilter    11. 14.100 / 11. 14.100
  libswscale      9.  5.100 /  9.  5.100
  libswresample   6.  3.100 /  6.  3.100
[in#0 @ 000002b068bb8640] Capturing whole desktop as 1920x1080x32 at (0,0)
[in#0/gdigrab @ 000002b068bb8640] Stream #0: not enough frames to estimate rate; consider increasing probesize
Input #0, gdigrab, from 'desktop':
  Duration: N/A, start: 1778941761.281669, bitrate: 1990668 kb/s
  Stream #0:0: Video: bmp, bgra, 1920x1080, 1990668 kb/s, 30 fps, 1000k tbr, 1000k tbn, start 1778941761.281669
Stream mapping:
  Stream #0:0 -> #0:0 (bmp (native) -> h264 (libx264))
Press [q] to stop, [?] for help
[libx264 @ 000002b068bbe6c0] using cpu capabilities: MMX2 SSE2Fast SSSE3 SSE4.2 AVX FMA3 BMI2 AVX2 AVX512
[libx264 @ 000002b068bbe6c0] profile High, level 4.0, 4:2:0, 8-bit
[libx264 @ 000002b068bbe6c0] 264 - core 165 r3223 0480cb0 - H.264/MPEG-4 AVC codec - Copyleft 2003-2025 - http://www.videolan.org/x264.html - options: cabac=1 ref=1 deblock=1:0:0 analyse=0x3:0x113 me=hex subme=2 psy=1 psy_rd=1.00:0.00 mixed_ref=0 me_range=16 chroma_me=1 trellis=0 8x8dct=1 cqm=0 deadzone=21,11 fast_pskip=1 chroma_qp_offset=0 threads=12 lookahead_threads=4 sliced_threads=0 nr=0 decimate=1 interlaced=0 bluray_compat=0 constrained_intra=0 bframes=3 b_pyramid=2 b_adapt=1 b_bias=0 direct=1 weightb=1 open_gop=0 weightp=1 keyint=250 keyint_min=25 scenecut=40 intra_refresh=0 rc_lookahead=10 rc=crf mbtree=1 crf=20.0 qcomp=0.60 qpmin=0 qpmax=69 qpstep=4 ip_ratio=1.40 aq=1:1.00
Output #0, mp4, to 'C:\Users\86150\Desktop\tf_resilient_agent\video\segment_live_mcp.mp4':
  Metadata:
    encoder         : Lavf62.12.100
  Stream #0:0: Video: h264 (avc1 / 0x31637661), yuv420p(tv, progressive), 1920x1080, q=2-31, 30 fps, 15360 tbn
    Metadata:
      encoder         : Lavc62.28.100 libx264
    Side data:
      CPB properties: bitrate max/min/avg: 0/0/0 buffer size: 0 vbv_delay: N/A
frame=    0 fps=0.0 q=0.0 size=       0KiB time=N/A bitrate=N/A speed=N/A elapsed=0:00:00.51    frame=    5 fps=4.9 q=26.0 size=       0KiB time=00:00:00.06 bitrate=   5.8kbits/s speed=0.0648x elapsed=0:00:01.02    frame=   21 fps= 14 q=26.0 size=       0KiB time=00:00:00.60 bitrate=   0.6kbits/s speed=0.387x elapsed=0:00:01.55    frame=   36 fps= 17 q=26.0 size=       0KiB time=00:00:01.10 bitrate=   0.3kbits/s speed=0.533x elapsed=0:00:02.06    frame=   52 fps= 20 q=26.0 size=       0KiB time=00:00:01.63 bitrate=   0.2kbits/s speed=0.631x elapsed=0:00:02.58    frame=   67 fps= 22 q=26.0 size=       0KiB time=00:00:02.13 bitrate=   0.2kbits/s speed=0.689x elapsed=0:00:03.09    frame=   83 fps= 23 q=26.0 size=       0KiB time=00:00:02.66 bitrate=   0.1kbits/s speed=0.74x elapsed=0:00:03.60    frame=   98 fps= 24 q=26.0 size=       0KiB time=00:00:03.16 bitrate=   0.1kbits/s speed=0.767x elapsed=0:00:04.12    frame=  113 fps= 24 q=26.0 size=       0KiB time=00:00:03.66 bitrate=   0.1kbits/s speed=0.791x elapsed=0:00:04.63    frame=  129 fps= 25 q=26.0 size=       0KiB time=00:00:04.20 bitrate=   0.1kbits/s speed=0.814x elapsed=0:00:05.16    frame=  145 fps= 26 q=26.0 size=       0KiB time=00:00:04.73 bitrate=   0.1kbits/s speed=0.835x elapsed=0:00:05.66    frame=  160 fps= 26 q=26.0 size=       0KiB time=00:00:05.23 bitrate=   0.1kbits/s speed=0.845x elapsed=0:00:06.19    frame=  176 fps= 26 q=26.0 size=       0KiB time=00:00:05.76 bitrate=   0.1kbits/s speed=0.86x elapsed=0:00:06.70    frame=  191 fps= 26 q=26.0 size=       0KiB time=00:00:06.26 bitrate=   0.1kbits/s speed=0.867x elapsed=0:00:07.22    frame=  207 fps= 27 q=26.0 size=       0KiB time=00:00:06.80 bitrate=   0.1kbits/s speed=0.879x elapsed=0:00:07.73    frame=  222 fps= 27 q=26.0 size=       0KiB time=00:00:07.30 bitrate=   0.1kbits/s speed=0.884x elapsed=0:00:08.25    frame=  237 fps= 27 q=26.0 size=       0KiB time=00:00:07.80 bitrate=   0.0kbits/s dup=0 drop=1 speed=0.89x elapsed=0:00:08.76    frame=  252 fps= 27 q=26.0 size=     256KiB time=00:00:08.33 bitrate= 251.7kbits/s dup=0 drop=1 speed=0.898x elapsed=0:00:09.27    frame=  267 fps= 27 q=26.0 size=     256KiB time=00:00:08.83 bitrate= 237.5kbits/s dup=0 drop=2 speed=0.901x elapsed=0:00:09.79    frame=  281 fps= 27 q=26.0 size=     256KiB time=00:00:09.30 bitrate= 225.5kbits/s dup=0 drop=2 speed=0.902x elapsed=0:00:10.30    frame=  297 fps= 27 q=26.0 size=     256KiB time=00:00:09.90 bitrate= 211.9kbits/s dup=0 drop=2 speed=0.914x elapsed=0:00:10.83    frame=  311 fps= 27 q=26.0 size=     256KiB time=00:00:10.36 bitrate= 202.3kbits/s dup=0 drop=3 speed=0.914x elapsed=0:00:11.34    frame=  328 fps= 28 q=26.0 size=     256KiB time=00:00:10.93 bitrate= 191.8kbits/s dup=0 drop=3 speed=0.921x elapsed=0:00:11.86    frame=  341 fps= 28 q=26.0 size=     256KiB time=00:00:11.36 bitrate= 184.5kbits/s dup=0 drop=4 speed=0.919x elapsed=0:00:12.37    frame=  357 fps= 28 q=26.0 size=     256KiB time=00:00:11.93 bitrate= 175.8kbits/s dup=0 drop=4 speed=0.925x elapsed=0:00:12.89    frame=  372 fps= 28 q=24.0 size=     256KiB time=00:00:12.43 bitrate= 168.7kbits/s dup=0 drop=5 speed=0.927x elapsed=0:00:13.40    frame=  387 fps= 28 q=26.0 size=     256KiB time=00:00:12.96 bitrate= 161.8kbits/s dup=0 drop=5 speed=0.932x elapsed=0:00:13.91    frame=  403 fps= 28 q=26.0 size=     256KiB time=00:00:13.50 bitrate= 155.4kbits/s dup=0 drop=5 speed=0.935x elapsed=0:00:14.43    frame=  418 fps= 28 q=26.0 size=     256KiB time=00:00:14.00 bitrate= 149.8kbits/s dup=0 drop=5 speed=0.937x elapsed=0:00:14.94    frame=  433 fps= 28 q=26.0 size=     256KiB time=00:00:14.50 bitrate= 144.7kbits/s dup=0 drop=6 speed=0.937x elapsed=0:00:15.47    frame=  448 fps= 28 q=26.0 size=     256KiB time=00:00:15.00 bitrate= 139.8kbits/s dup=0 drop=6 speed=0.939x elapsed=0:00:15.98    frame=  463 fps= 28 q=26.0 size=     256KiB time=00:00:15.53 bitrate= 135.0kbits/s dup=0 drop=6 speed=0.941x elapsed=0:00:16.50    frame=  479 fps= 28 q=26.0 size=     256KiB time=00:00:16.06 bitrate= 130.6kbits/s dup=0 drop=6 speed=0.944x elapsed=0:00:17.01    frame=  494 fps= 28 q=26.0 size=     256KiB time=00:00:16.56 bitrate= 126.6kbits/s dup=0 drop=6 speed=0.945x elapsed=0:00:17.53    frame=  510 fps= 28 q=26.0 size=     512KiB time=00:00:17.10 bitrate= 245.3kbits/s dup=0 drop=6 speed=0.948x elapsed=0:00:18.04    frame=  525 fps= 28 q=26.0 size=     512KiB time=00:00:17.60 bitrate= 238.3kbits/s dup=0 drop=6 speed=0.948x elapsed=0:00:18.56    frame=  541 fps= 28 q=26.0 size=     512KiB time=00:00:18.13 bitrate= 231.3kbits/s dup=0 drop=6 speed=0.95x elapsed=0:00:19.07    frame=  557 fps= 28 q=26.0 size=     512KiB time=00:00:18.66 bitrate= 224.7kbits/s dup=0 drop=6 speed=0.952x elapsed=0:00:19.60    frame=  572 fps= 28 q=26.0 size=     512KiB time=00:00:19.16 bitrate= 218.9kbits/s dup=0 drop=6 speed=0.953x elapsed=0:00:20.11    frame=  587 fps= 28 q=26.0 size=     512KiB time=00:00:19.66 bitrate= 213.3kbits/s dup=0 drop=6 speed=0.954x elapsed=0:00:20.62    frame=  602 fps= 28 q=26.0 size=     512KiB time=00:00:20.16 bitrate= 208.0kbits/s dup=0 drop=7 speed=0.954x elapsed=0:00:21.14    frame=  617 fps= 28 q=26.0 size=     512KiB time=00:00:20.66 bitrate= 203.0kbits/s dup=0 drop=7 speed=0.954x elapsed=0:00:21.65    frame=  633 fps= 29 q=26.0 size=     512KiB time=00:00:21.23 bitrate= 197.6kbits/s dup=0 drop=7 speed=0.957x elapsed=0:00:22.18    frame=  648 fps= 29 q=26.0 size=     512KiB time=00:00:21.73 bitrate= 193.0kbits/s dup=0 drop=7 speed=0.958x elapsed=0:00:22.68    frame=  663 fps= 29 q=26.0 size=     512KiB time=00:00:22.23 bitrate= 188.7kbits/s dup=0 drop=7 speed=0.958x elapsed=0:00:23.19    frame=  679 fps= 29 q=26.0 size=     512KiB time=00:00:22.76 bitrate= 184.2kbits/s dup=0 drop=7 speed=0.96x elapsed=0:00:23.72    frame=  694 fps= 29 q=26.0 size=     512KiB time=00:00:23.26 bitrate= 180.3kbits/s dup=0 drop=7 speed=0.96x elapsed=0:00:24.23    frame=  710 fps= 29 q=26.0 size=     512KiB time=00:00:23.80 bitrate= 176.2kbits/s dup=0 drop=7 speed=0.961x elapsed=0:00:24.75    frame=  726 fps= 29 q=26.0 size=     512KiB time=00:00:24.33 bitrate= 172.4kbits/s dup=0 drop=7 speed=0.963x elapsed=0:00:25.26    frame=  741 fps= 29 q=26.0 size=     512KiB time=00:00:24.83 bitrate= 168.9kbits/s dup=0 drop=7 speed=0.963x elapsed=0:00:25.78    frame=  756 fps= 29 q=26.0 size=     768KiB time=00:00:25.33 bitrate= 248.4kbits/s dup=0 drop=7 speed=0.963x elapsed=0:00:26.29    frame=  771 fps= 29 q=26.0 size=     768KiB time=00:00:25.83 bitrate= 243.6kbits/s dup=0 drop=8 speed=0.963x elapsed=0:00:26.82    frame=  786 fps= 29 q=24.0 size=     768KiB time=00:00:26.33 bitrate= 238.9kbits/s dup=0 drop=9 speed=0.963x elapsed=0:00:27.33    frame=  800 fps= 29 q=26.0 size=     768KiB time=00:00:26.86 bitrate= 234.2kbits/s dup=0 drop=10 speed=0.965x elapsed=0:00:27.85    frame=  814 fps= 29 q=26.0 size=     768KiB time=00:00:27.36 bitrate= 229.9kbits/s dup=0 drop=11 speed=0.965x elapsed=0:00:28.36    frame=  829 fps= 29 q=26.0 size=     768KiB time=00:00:27.90 bitrate= 225.5kbits/s dup=0 drop=12 speed=0.966x elapsed=0:00:28.87    frame=  841 fps= 29 q=26.0 size=     768KiB time=00:00:28.30 bitrate= 222.3kbits/s dup=0 drop=14 speed=0.963x elapsed=0:00:29.39    frame=  854 fps= 29 q=24.0 size=     768KiB time=00:00:28.80 bitrate= 218.5kbits/s dup=0 drop=17 speed=0.963x elapsed=0:00:29.90    frame=  869 fps= 29 q=25.0 size=     768KiB time=00:00:29.36 bitrate= 214.3kbits/s dup=0 drop=18 speed=0.965x elapsed=0:00:30.43    frame=  882 fps= 29 q=25.0 size=     768KiB time=00:00:29.90 bitrate= 210.4kbits/s dup=0 drop=20 speed=0.966x elapsed=0:00:30.93    frame=  897 fps= 29 q=26.0 size=     768KiB time=00:00:30.43 bitrate= 206.7kbits/s dup=0 drop=21 speed=0.967x elapsed=0:00:31.46    frame=  913 fps= 29 q=26.0 size=     768KiB time=00:00:31.00 bitrate= 203.0kbits/s dup=0 drop=21 speed=0.97x elapsed=0:00:31.97    frame=  928 fps= 29 q=26.0 size=     768KiB time=00:00:31.53 bitrate= 199.5kbits/s dup=0 drop=21 speed=0.971x elapsed=0:00:32.48    frame=  943 fps= 29 q=26.0 size=     768KiB time=00:00:32.03 bitrate= 196.4kbits/s dup=0 drop=21 speed=0.971x elapsed=0:00:33.00    frame=  959 fps= 29 q=26.0 size=     768KiB time=00:00:32.56 bitrate= 193.2kbits/s dup=0 drop=21 speed=0.972x elapsed=0:00:33.51    frame=  974 fps= 29 q=26.0 size=     768KiB time=00:00:33.06 bitrate= 190.3kbits/s dup=0 drop=21 speed=0.971x elapsed=0:00:34.03    frame=  989 fps= 29 q=26.0 size=     768KiB time=00:00:33.56 bitrate= 187.4kbits/s dup=0 drop=22 speed=0.972x elapsed=0:00:34.54    frame= 1003 fps= 29 q=26.0 size=    1024KiB time=00:00:34.03 bitrate= 246.5kbits/s dup=0 drop=23 speed=0.97x elapsed=0:00:35.06    frame= 1019 fps= 29 q=26.0 size=    1024KiB time=00:00:34.63 bitrate= 242.2kbits/s dup=0 drop=23 speed=0.974x elapsed=0:00:35.57    frame= 1033 fps= 29 q=26.0 size=    1024KiB time=00:00:35.10 bitrate= 239.0kbits/s dup=0 drop=24 speed=0.972x elapsed=0:00:36.09    frame= 1049 fps= 29 q=26.0 size=    1024KiB time=00:00:35.63 bitrate= 235.4kbits/s dup=0 drop=24 speed=0.973x elapsed=0:00:36.60    frame= 1065 fps= 29 q=26.0 size=    1024KiB time=00:00:36.20 bitrate= 231.7kbits/s dup=0 drop=24 speed=0.975x elapsed=0:00:37.13    frame= 1080 fps= 29 q=26.0 size=    1024KiB time=00:00:36.70 bitrate= 228.6kbits/s dup=0 drop=24 speed=0.975x elapsed=0:00:37.64    frame= 1095 fps= 29 q=26.0 size=    1024KiB time=00:00:37.20 bitrate= 225.5kbits/s dup=0 drop=24 speed=0.975x elapsed=0:00:38.15    frame= 1111 fps= 29 q=26.0 size=    1024KiB time=00:00:37.73 bitrate= 222.3kbits/s dup=0 drop=24 speed=0.976x elapsed=0:00:38.67    frame= 1126 fps= 29 q=26.0 size=    1024KiB time=00:00:38.23 bitrate= 219.4kbits/s dup=0 drop=24 speed=0.976x elapsed=0:00:39.18    frame= 1142 fps= 29 q=26.0 size=    1024KiB time=00:00:38.76 bitrate= 216.4kbits/s dup=0 drop=24 speed=0.976x elapsed=0:00:39.71    frame= 1157 fps= 29 q=26.0 size=    1024KiB time=00:00:39.26 bitrate= 213.6kbits/s dup=0 drop=24 speed=0.976x elapsed=0:00:40.22    frame= 1172 fps= 29 q=26.0 size=    1024KiB time=00:00:39.76 bitrate= 211.0kbits/s dup=0 drop=24 speed=0.976x elapsed=0:00:40.72    frame= 1188 fps= 29 q=26.0 size=    1024KiB time=00:00:40.30 bitrate= 208.2kbits/s dup=0 drop=24 speed=0.977x elapsed=0:00:41.25    frame= 1203 fps= 29 q=26.0 size=    1024KiB time=00:00:40.80 bitrate= 205.6kbits/s dup=0 drop=24 speed=0.977x elapsed=0:00:41.76    frame= 1219 fps= 29 q=26.0 size=    1024KiB time=00:00:41.33 bitrate= 203.0kbits/s dup=0 drop=24 speed=0.977x elapsed=0:00:42.28    frame= 1235 fps= 29 q=26.0 size=    1024KiB time=00:00:41.86 bitrate= 200.4kbits/s dup=0 drop=24 speed=0.978x elapsed=0:00:42.79    frame= 1250 fps= 29 q=26.0 size=    1024KiB time=00:00:42.36 bitrate= 198.0kbits/s dup=0 drop=24 speed=0.978x elapsed=0:00:43.30    frame= 1266 fps= 29 q=26.0 size=    1280KiB time=00:00:42.90 bitrate= 244.4kbits/s dup=0 drop=24 speed=0.979x elapsed=0:00:43.83    frame= 1280 fps= 29 q=26.0 size=    1280KiB time=00:00:43.36 bitrate= 241.8kbits/s dup=0 drop=24 speed=0.978x elapsed=0:00:44.34    frame= 1295 fps= 29 q=26.0 size=    1280KiB time=00:00:43.86 bitrate= 239.0kbits/s dup=0 drop=25 speed=0.978x elapsed=0:00:44.86    frame= 1310 fps= 29 q=26.0 size=    1280KiB time=00:00:44.40 bitrate= 236.2kbits/s dup=0 drop=26 speed=0.978x elapsed=0:00:45.37    frame= 1322 fps= 29 q=26.0 size=    1280KiB time=00:00:44.83 bitrate= 233.9kbits/s dup=0 drop=28 speed=0.977x elapsed=0:00:45.88    frame= 1335 fps= 29 q=26.0 size=    1280KiB time=00:00:45.26 bitrate= 231.7kbits/s dup=0 drop=31 speed=0.975x elapsed=0:00:46.41    frame= 1351 fps= 29 q=26.0 size=    1280KiB time=00:00:45.90 bitrate= 228.5kbits/s dup=0 drop=31 speed=0.978x elapsed=0:00:46.91    frame= 1366 fps= 29 q=26.0 size=    1280KiB time=00:00:46.50 bitrate= 225.5kbits/s dup=0 drop=32 speed=0.98x elapsed=0:00:47.44    frame= 1379 fps= 29 q=26.0 size=    1280KiB time=00:00:46.93 bitrate= 223.4kbits/s dup=0 drop=34 speed=0.979x elapsed=0:00:47.95    frame= 1394 fps= 29 q=26.0 size=    1280KiB time=00:00:47.46 bitrate= 220.9kbits/s dup=0 drop=35 speed=0.979x elapsed=0:00:48.47    frame= 1407 fps= 29 q=26.0 size=    1280KiB time=00:00:47.93 bitrate= 218.8kbits/s dup=0 drop=37 speed=0.979x elapsed=0:00:48.98    frame= 1421 fps= 29 q=26.0 size=    1280KiB time=00:00:48.46 bitrate= 216.4kbits/s dup=0 drop=38 speed=0.979x elapsed=0:00:49.49    frame= 1437 fps= 29 q=26.0 size=    1280KiB time=00:00:49.03 bitrate= 213.9kbits/s dup=0 drop=38 speed=0.98x elapsed=0:00:50.02    frame= 1451 fps= 29 q=26.0 size=    1280KiB time=00:00:49.53 bitrate= 211.7kbits/s dup=0 drop=39 speed=0.98x elapsed=0:00:50.52    frame= 1467 fps= 29 q=26.0 size=    1280KiB time=00:00:50.06 bitrate= 209.4kbits/s dup=0 drop=39 speed=0.981x elapsed=0:00:51.05    frame= 1482 fps= 29 q=26.0 size=    1280KiB time=00:00:50.60 bitrate= 207.2kbits/s dup=0 drop=39 speed=0.981x elapsed=0:00:51.56    frame= 1498 fps= 29 q=26.0 size=    1280KiB time=00:00:51.13 bitrate= 205.1kbits/s dup=0 drop=39 speed=0.982x elapsed=0:00:52.07    frame= 1513 fps= 29 q=26.0 size=    1536KiB time=00:00:51.63 bitrate= 243.7kbits/s dup=0 drop=39 speed=0.982x elapsed=0:00:52.59    frame= 1529 fps= 29 q=26.0 size=    1536KiB time=00:00:52.16 bitrate= 241.2kbits/s dup=0 drop=39 speed=0.982x elapsed=0:00:53.10    frame= 1543 fps= 29 q=26.0 size=    1536KiB time=00:00:52.63 bitrate= 239.1kbits/s dup=0 drop=39 speed=0.981x elapsed=0:00:53.63    frame= 1559 fps= 29 q=26.0 size=    1536KiB time=00:00:53.16 bitrate= 236.7kbits/s dup=0 drop=40 speed=0.982x elapsed=0:00:54.14    frame= 1574 fps= 29 q=26.0 size=    1536KiB time=00:00:53.70 bitrate= 234.3kbits/s dup=0 drop=40 speed=0.982x elapsed=0:00:54.66    frame= 1590 fps= 29 q=26.0 size=    1536KiB time=00:00:54.23 bitrate= 232.0kbits/s dup=0 drop=40 speed=0.983x elapsed=0:00:55.17    frame= 1605 fps= 29 q=26.0 size=    1536KiB time=00:00:54.73 bitrate= 229.9kbits/s dup=0 drop=40 speed=0.983x elapsed=0:00:55.69    frame= 1621 fps= 29 q=26.0 size=    1536KiB time=00:00:55.26 bitrate= 227.7kbits/s dup=0 drop=40 speed=0.983x elapsed=0:00:56.20    frame= 1636 fps= 29 q=26.0 size=    1536KiB time=00:00:55.76 bitrate= 225.6kbits/s dup=0 drop=40 speed=0.983x elapsed=0:00:56.71    frame= 1652 fps= 29 q=26.0 size=    1536KiB time=00:00:56.30 bitrate= 223.5kbits/s dup=0 drop=40 speed=0.984x elapsed=0:00:57.23    frame= 1667 fps= 29 q=26.0 size=    1536KiB time=00:00:56.80 bitrate= 221.5kbits/s dup=0 drop=40 speed=0.984x elapsed=0:00:57.74    frame= 1683 fps= 29 q=26.0 size=    1536KiB time=00:00:57.33 bitrate= 219.5kbits/s dup=0 drop=40 speed=0.984x elapsed=0:00:58.27    frame= 1698 fps= 29 q=26.0 size=    1536KiB time=00:00:57.83 bitrate= 217.6kbits/s dup=0 drop=40 speed=0.984x elapsed=0:00:58.78    frame= 1714 fps= 29 q=26.0 size=    1536KiB time=00:00:58.36 bitrate= 215.6kbits/s dup=0 drop=40 speed=0.984x elapsed=0:00:59.30    frame= 1729 fps= 29 q=26.0 size=    1536KiB time=00:00:58.86 bitrate= 213.8kbits/s dup=0 drop=40 speed=0.984x elapsed=0:00:59.81    [out#0/mp4 @ 000002b068bb9cc0] video:1901KiB audio:0KiB subtitle:0KiB other streams:0KiB global headers:0KiB muxing overhead: 1.162068%
frame= 1760 fps= 29 q=-1.0 Lsize=    1923KiB time=00:00:59.90 bitrate= 262.9kbits/s dup=0 drop=40 speed=0.997x elapsed=0:01:00.06    
[libx264 @ 000002b068bbe6c0] frame I:8     Avg QP:11.03  size:152675
[libx264 @ 000002b068bbe6c0] frame P:448   Avg QP:18.49  size:   918
[libx264 @ 000002b068bbe6c0] frame B:1304  Avg QP:23.01  size:   240
[libx264 @ 000002b068bbe6c0] consecutive B-frames:  0.9%  1.0%  0.2% 98.0%
[libx264 @ 000002b068bbe6c0] mb I  I16..4: 66.8%  6.0% 27.3%
[libx264 @ 000002b068bbe6c0] mb P  I16..4:  0.2%  0.0%  0.1%  P16..4:  0.4%  0.1%  0.1%  0.0%  0.0%    skip:99.2%
[libx264 @ 000002b068bbe6c0] mb B  I16..4:  0.1%  0.0%  0.0%  B16..8:  0.2%  0.1%  0.0%  direct: 0.1%  skip:99.6%  L0:42.9% L1:47.8% BI: 9.2%
[libx264 @ 000002b068bbe6c0] 8x8 transform intra:5.3% inter:3.1%
[libx264 @ 000002b068bbe6c0] coded y,uvDC,uvAC intra: 25.7% 18.0% 15.3% inter: 0.1% 0.1% 0.1%
[libx264 @ 000002b068bbe6c0] i16 v,h,dc,p: 67% 32%  0%  0%
[libx264 @ 000002b068bbe6c0] i8 v,h,dc,ddl,ddr,vr,hd,vl,hu: 18% 47% 15%  4%  3%  2%  2%  3%  6%
[libx264 @ 000002b068bbe6c0] i4 v,h,dc,ddl,ddr,vr,hd,vl,hu: 31% 31% 15%  3%  4%  4%  4%  4%  5%
[libx264 @ 000002b068bbe6c0] i8c dc,h,v,p: 72% 22%  5%  1%
[libx264 @ 000002b068bbe6c0] Weighted P-Frames: Y:0.0% UV:0.0%
[libx264 @ 000002b068bbe6c0] kb/s:259.40
